<svg xmlns="http://www.w3.org/2000/svg" viewBox="0 0 24 24" fill="#00B14F">
  <path d="M19 8C19.56 8 20 7.56 20 7C20 6.44 19.56 6 19 6C18.44 6 18 6.44 18 7C18 7.56 18.44 8 19 8M2 2V11C2 13.96 4.19 16.5 7.14 16.91C7.76 19.92 10.47 22 13.5 22C16.53 22 19.24 19.92 19.86 16.91C21.81 16.7 23.36 15.12 23.36 13.16V8C23.36 5.79 21.57 4 19.36 4H18V2H16V4H8V2H6V4H4C2.9 4 2 4.9 2 6V2M6 6H18V13.16C18 14.85 16.85 16 15.16 16C13.47 16 12 14.85 12 13.16V11H10V13.16C10 14.85 8.53 16 6.84 16C5.15 16 4 14.85 4 13.16V6Z"/>
</svg> 