<svg width="80" height="32" viewBox="0 0 80 32" fill="none" xmlns="http://www.w3.org/2000/svg">
  <path d="M16.9 8.4H25.1V11.2H20.3V24H16.9V8.4Z" fill="#00B14F"/>
  <path d="M35.9 16.8H39.3V24H35.9V22.8C35.1 23.8 33.9 24.4 32.3 24.4C29.3 24.4 27.1 22 27.1 18.8C27.1 15.6 29.3 13.2 32.3 13.2C33.9 13.2 35.1 13.8 35.9 14.8V13.6H39.3V16.8ZM33.1 21.2C34.7 21.2 35.9 20.2 35.9 18.8C35.9 17.4 34.7 16.4 33.1 16.4C31.5 16.4 30.3 17.4 30.3 18.8C30.3 20.2 31.5 21.2 33.1 21.2Z" fill="#00B14F"/>
  <path d="M49.9 13.6H53.3V24H49.9V22.8C49.1 23.8 47.9 24.4 46.3 24.4C43.3 24.4 41.1 22 41.1 18.8C41.1 15.6 43.3 13.2 46.3 13.2C47.9 13.2 49.1 13.8 49.9 14.8V13.6ZM47.1 21.2C48.7 21.2 49.9 20.2 49.9 18.8C49.9 17.4 48.7 16.4 47.1 16.4C45.5 16.4 44.3 17.4 44.3 18.8C44.3 20.2 45.5 21.2 47.1 21.2Z" fill="#00B14F"/>
</svg> 